<svg id="svg" version="1.1" xmlns="http://www.w3.org/2000/svg" xmlns:xlink="http://www.w3.org/1999/xlink" width="400" height="400" viewBox="0, 0, 400,400"><g id="svgg"><path id="path0" d="M113.503 61.902 C 68.037 90.451,39.049 140.293,37.314 192.900 L 37.080 200.000 93.897 200.000 C 145.338 200.000,150.737 199.940,150.957 199.367 C 151.091 199.019,151.200 197.743,151.200 196.530 C 151.200 183.244,161.741 165.453,173.608 158.710 C 174.489 158.210,175.162 157.586,175.105 157.325 C 174.873 156.276,118.580 59.200,118.204 59.202 C 117.982 59.203,115.866 60.418,113.503 61.902 M273.133 73.500 C 268.592 81.365,255.859 103.417,244.838 122.504 C 233.817 141.591,224.810 157.341,224.822 157.504 C 224.834 157.667,225.869 158.459,227.122 159.265 C 239.279 167.084,248.800 183.451,248.800 196.530 C 248.800 197.743,248.909 199.019,249.043 199.367 C 249.263 199.940,254.662 200.000,306.103 200.000 L 362.920 200.000 362.686 192.900 C 361.076 144.068,335.494 96.648,295.160 67.731 C 290.108 64.109,282.425 59.206,281.795 59.202 C 281.572 59.201,277.674 65.635,273.133 73.500 M193.245 168.218 C 167.702 173.759,158.802 205.501,177.745 223.495 C 192.720 237.720,217.514 234.312,227.915 216.600 C 242.143 192.370,220.585 162.287,193.245 168.218 M174.831 243.774 C 169.015 253.369,118.839 340.939,119.004 341.206 C 119.363 341.787,127.127 345.849,132.497 348.265 C 175.787 367.745,224.213 367.745,267.503 348.265 C 272.873 345.849,280.637 341.787,280.996 341.206 C 281.161 340.939,230.985 253.369,225.169 243.774 L 224.427 242.549 221.361 244.044 C 208.085 250.519,191.915 250.519,178.639 244.044 L 175.573 242.549 174.831 243.774 " stroke="none" fill="#f3cb43" fill-rule="evenodd"></path><path id="path1" d="M189.321 5.200 C 66.878 12.496,-18.517 127.795,10.568 246.548 C 35.335 347.668,135.701 411.604,237.896 391.362 C 346.877 369.777,415.863 261.469,389.433 153.452 C 367.193 62.556,282.294 -0.341,189.321 5.200 M131.287 80.700 C 138.238 92.745,150.969 114.796,159.577 129.703 C 168.185 144.610,175.308 157.030,175.406 157.303 C 175.508 157.587,174.356 158.571,172.718 159.600 C 160.706 167.145,151.200 184.353,151.200 198.551 L 151.200 200.000 93.939 200.000 L 36.677 200.000 36.951 193.588 C 39.116 142.963,64.210 96.451,105.092 67.290 C 109.665 64.028,117.864 58.800,118.406 58.800 C 118.539 58.800,124.335 68.655,131.287 80.700 M285.925 61.300 C 331.492 89.152,360.661 139.160,363.034 193.500 L 363.318 200.000 306.117 200.000 L 248.915 200.000 248.647 196.791 C 247.359 181.343,239.180 167.167,227.151 159.535 C 225.598 158.550,224.493 157.585,224.594 157.303 C 224.692 157.030,231.815 144.610,240.422 129.703 C 249.030 114.796,261.759 92.745,268.710 80.700 C 275.661 68.655,281.458 58.800,281.592 58.800 C 281.726 58.800,283.676 59.925,285.925 61.300 M207.775 168.195 C 238.301 176.338,241.487 218.513,212.463 230.237 C 185.562 241.103,158.897 214.438,169.763 187.537 C 175.689 172.865,192.746 164.186,207.775 168.195 M179.088 243.993 C 191.884 250.265,208.226 250.234,221.036 243.913 C 223.895 242.503,224.509 242.325,224.825 242.815 C 225.700 244.171,281.239 340.437,281.422 340.914 C 281.556 341.264,279.399 342.580,274.912 344.885 C 231.564 367.156,181.537 369.163,136.800 350.427 C 129.295 347.284,118.333 341.550,118.584 340.899 C 119.034 339.725,175.365 242.400,175.594 242.400 C 175.728 242.400,177.301 243.117,179.088 243.993 " stroke="none" fill="#040404" fill-rule="evenodd"></path><path id="path2" d="M198.700 167.489 C 199.415 167.578,200.585 167.578,201.300 167.489 C 202.015 167.401,201.430 167.328,200.000 167.328 C 198.570 167.328,197.985 167.401,198.700 167.489 M198.700 232.689 C 199.415 232.778,200.585 232.778,201.300 232.689 C 202.015 232.601,201.430 232.528,200.000 232.528 C 198.570 232.528,197.985 232.601,198.700 232.689 M194.305 363.083 C 194.802 363.179,195.522 363.175,195.905 363.075 C 196.287 362.975,195.880 362.896,195.000 362.901 C 194.120 362.905,193.807 362.987,194.305 363.083 M204.305 363.083 C 204.802 363.179,205.522 363.175,205.905 363.075 C 206.287 362.975,205.880 362.896,205.000 362.901 C 204.120 362.905,203.807 362.987,204.305 363.083 " stroke="none" fill="#5f511a" fill-rule="evenodd"></path><path id="path3" d="" stroke="none" fill="#3c3414" fill-rule="evenodd"></path><path id="path4" d="M164.985 165.700 L 163.000 167.800 165.100 165.815 C 166.255 164.723,167.200 163.778,167.200 163.715 C 167.200 163.417,166.829 163.749,164.985 165.700 M234.600 165.600 C 235.683 166.700,236.660 167.600,236.770 167.600 C 236.880 167.600,236.083 166.700,235.000 165.600 C 233.917 164.500,232.940 163.600,232.830 163.600 C 232.720 163.600,233.517 164.500,234.600 165.600 M176.800 177.000 C 175.828 177.990,175.123 178.800,175.233 178.800 C 175.343 178.800,176.228 177.990,177.200 177.000 C 178.172 176.010,178.877 175.200,178.767 175.200 C 178.657 175.200,177.772 176.010,176.800 177.000 M222.783 176.900 C 224.441 178.666,224.800 178.984,224.800 178.683 C 224.800 178.619,223.945 177.764,222.900 176.783 L 221.000 175.000 222.783 176.900 M36.928 197.600 C 36.928 199.030,37.001 199.615,37.089 198.900 C 37.178 198.185,37.178 197.015,37.089 196.300 C 37.001 195.585,36.928 196.170,36.928 197.600 M362.924 197.800 C 362.926 199.120,363.001 199.612,363.090 198.893 C 363.179 198.174,363.177 197.094,363.086 196.493 C 362.995 195.892,362.922 196.480,362.924 197.800 M167.293 200.000 C 167.293 200.770,167.375 201.085,167.476 200.700 C 167.576 200.315,167.576 199.685,167.476 199.300 C 167.375 198.915,167.293 199.230,167.293 200.000 M176.600 222.800 C 177.459 223.680,178.252 224.400,178.362 224.400 C 178.472 224.400,177.859 223.680,177.000 222.800 C 176.141 221.920,175.348 221.200,175.238 221.200 C 175.128 221.200,175.741 221.920,176.600 222.800 M222.778 223.100 L 221.400 224.600 222.900 223.222 C 224.296 221.938,224.584 221.600,224.278 221.600 C 224.212 221.600,223.537 222.275,222.778 223.100 M198.100 363.094 C 199.145 363.176,200.855 363.176,201.900 363.094 C 202.945 363.012,202.090 362.944,200.000 362.944 C 197.910 362.944,197.055 363.012,198.100 363.094 " stroke="none" fill="#846c24" fill-rule="evenodd"></path></g></svg>